<svg width="64" height="64" viewBox="0 0 64 64" fill="none" xmlns="http://www.w3.org/2000/svg">
<circle cx="32" cy="32" r="32" fill="#2B4448"/>
<g clip-path="url(#clip0_1_658)">
<path d="M32 19.72C30.8667 19.72 29.7589 20.056 28.8166 20.6856C27.8743 21.3153 27.1399 22.2102 26.7062 23.2572C26.2725 24.3042 26.159 25.4563 26.3801 26.5678C26.6012 27.6793 27.1469 28.7003 27.9483 29.5017C28.7497 30.303 29.7706 30.8488 30.8822 31.0699C31.9937 31.291 33.1458 31.1775 34.1928 30.7438C35.2398 30.3101 36.1347 29.5757 36.7643 28.6334C37.394 27.6911 37.73 26.5833 37.73 25.45C37.73 23.9303 37.1263 22.4728 36.0517 21.3982C34.9772 20.3237 33.5197 19.72 32 19.72ZM32 29.18C31.2623 29.18 30.5411 28.9612 29.9277 28.5514C29.3143 28.1415 28.8363 27.5589 28.554 26.8774C28.2716 26.1958 28.1978 25.4458 28.3417 24.7223C28.4856 23.9987 28.8409 23.3341 29.3625 22.8125C29.8842 22.2908 30.5488 21.9356 31.2723 21.7916C31.9959 21.6477 32.7459 21.7216 33.4274 22.0039C34.109 22.2862 34.6915 22.7643 35.1014 23.3777C35.5113 23.9911 35.73 24.7122 35.73 25.45C35.7274 26.4375 35.3332 27.3837 34.634 28.081C33.9348 28.7784 32.9875 29.17 32 29.17V29.18Z" fill="white"/>
<path d="M32 15C28.8852 15.0026 25.898 16.2377 23.6908 18.4355C21.4836 20.6333 20.2358 23.6152 20.22 26.73C20.22 31.4 22.84 35.31 24.76 38.16L25.11 38.68C27.0202 41.4486 29.0695 44.1187 31.25 46.68L32.01 47.57L32.77 46.68C34.9501 44.1185 36.9994 41.4484 38.91 38.68L39.26 38.15C41.17 35.3 43.79 31.4 43.79 26.73C43.7741 23.6135 42.525 20.6301 40.3156 18.432C38.1063 16.2339 35.1165 15 32 15ZM37.59 37L37.23 37.53C35.51 40.11 33.23 43 32 44.43C30.82 43 28.49 40.11 26.77 37.53L26.42 37C24.65 34.36 22.22 30.75 22.22 26.69C22.22 25.4057 22.4729 24.1339 22.9644 22.9474C23.4559 21.7608 24.1763 20.6827 25.0845 19.7745C25.9926 18.8663 27.0708 18.1459 28.2573 17.6545C29.4439 17.163 30.7156 16.91 32 16.91C33.2843 16.91 34.5561 17.163 35.7426 17.6545C36.9292 18.1459 38.0073 18.8663 38.9155 19.7745C39.8236 20.6827 40.544 21.7608 41.0355 22.9474C41.527 24.1339 41.78 25.4057 41.78 26.69C41.78 30.79 39.36 34.4 37.59 37Z" fill="white"/>
</g>
<defs>
<clipPath id="clip0_1_658">
<rect width="36" height="36" fill="white" transform="translate(14 13)"/>
</clipPath>
</defs>
</svg>
