<svg width="64" height="64" viewBox="0 0 64 64" fill="none" xmlns="http://www.w3.org/2000/svg">
<circle cx="32" cy="32" r="32" fill="#2B4448"/>
<path d="M44.875 22.1875H20.125C19.8515 22.1875 19.5892 22.2961 19.3958 22.4895C19.2024 22.6829 19.0938 22.9452 19.0938 23.2188V40.75C19.0938 41.297 19.311 41.8216 19.6978 42.2084C20.0846 42.5952 20.6092 42.8125 21.1562 42.8125H43.8438C44.3908 42.8125 44.9154 42.5952 45.3022 42.2084C45.689 41.8216 45.9062 41.297 45.9062 40.75V23.2188C45.9062 22.9452 45.7976 22.6829 45.6042 22.4895C45.4108 22.2961 45.1485 22.1875 44.875 22.1875ZM42.2195 24.25L32.5 33.1574L22.7805 24.25H42.2195ZM43.8438 40.75H21.1562V25.5648L31.8039 35.323C31.994 35.497 32.2423 35.5934 32.5 35.5934C32.7577 35.5934 33.006 35.497 33.1961 35.323L43.8438 25.5648V40.75Z" fill="white"/>
</svg>
