<svg width="64" height="64" viewBox="0 0 64 64" fill="none" xmlns="http://www.w3.org/2000/svg">
<circle cx="32" cy="32" r="32" fill="#2B4448"/>
<path d="M34.5551 21.8856C34.5894 21.7545 34.6495 21.6316 34.7319 21.524C34.8143 21.4165 34.9174 21.3264 35.035 21.2592C35.1527 21.192 35.2826 21.1489 35.4171 21.1325C35.5516 21.1161 35.688 21.1267 35.8184 21.1637C37.7408 21.6793 39.4937 22.6916 40.901 24.099C42.3084 25.5064 43.3207 27.2593 43.8363 29.1817C43.8733 29.3121 43.8839 29.4485 43.8676 29.583C43.8512 29.7175 43.8081 29.8474 43.7409 29.965C43.6736 30.0827 43.5836 30.1857 43.476 30.2681C43.3685 30.3506 43.2455 30.4107 43.1145 30.445C43.0265 30.4705 42.9353 30.4835 42.8438 30.4836C42.6161 30.4823 42.3954 30.4058 42.2158 30.2659C42.0363 30.126 41.9081 29.9306 41.8512 29.7102C41.4223 28.1405 40.5916 26.7097 39.441 25.5591C38.2903 24.4085 36.8596 23.5777 35.2898 23.1489C35.1576 23.116 35.0333 23.0569 34.9243 22.9751C34.8153 22.8933 34.7238 22.7904 34.6553 22.6726C34.5868 22.5548 34.5426 22.4245 34.5254 22.2893C34.5082 22.1541 34.5183 22.0168 34.5551 21.8856ZM34.2199 27.1321C35.0925 27.3709 35.8877 27.8329 36.5274 28.4726C37.1671 29.1123 37.6291 29.9076 37.868 30.7801C37.9228 31.0016 38.0505 31.1983 38.2305 31.3385C38.4105 31.4788 38.6324 31.5545 38.8605 31.5536C38.948 31.5544 39.035 31.5414 39.1184 31.5149C39.2506 31.482 39.3749 31.4229 39.4839 31.3411C39.5929 31.2593 39.6844 31.1564 39.7529 31.0386C39.8214 30.9208 39.8656 30.7905 39.8828 30.6553C39.9 30.5201 39.8899 30.3828 39.8531 30.2516C39.5276 29.0264 38.884 27.9089 37.9876 27.0125C37.0911 26.1161 35.9737 25.4725 34.7484 25.1469C34.6139 25.0979 34.4707 25.0775 34.3278 25.0869C34.185 25.0962 34.0456 25.1353 33.9187 25.2015C33.7917 25.2677 33.6799 25.3596 33.5905 25.4713C33.501 25.5831 33.4357 25.7122 33.3989 25.8506C33.3621 25.9889 33.3544 26.1334 33.3765 26.2749C33.3986 26.4163 33.4499 26.5516 33.5271 26.6722C33.6043 26.7927 33.7058 26.8959 33.8251 26.9751C33.9444 27.0542 34.0788 27.1077 34.2199 27.1321ZM44.8547 39.5715C44.6266 41.3123 43.7742 42.911 42.4559 44.0705C41.1376 45.2299 39.4431 45.8712 37.6875 45.8751C27.4523 45.8751 19.125 37.5477 19.125 27.3126C19.1289 25.5569 19.7701 23.8624 20.9296 22.5441C22.089 21.2258 23.6878 20.3734 25.4285 20.1454C25.8723 20.0962 26.3202 20.1896 26.7072 20.4121C27.0943 20.6346 27.4004 20.9746 27.5813 21.3829L30.1723 27.4286C30.3067 27.7424 30.3606 28.0848 30.329 28.4247C30.2975 28.7646 30.1816 29.0913 29.9918 29.3751L27.852 32.6493C28.8209 34.6157 30.4175 36.2032 32.3895 37.161L35.625 35.0083C35.9085 34.8172 36.2359 34.7015 36.5765 34.6722C36.9171 34.6429 37.2595 34.7009 37.5715 34.8407L43.6172 37.4188C44.0254 37.5996 44.3654 37.9057 44.5879 38.2928C44.8105 38.6799 44.9039 39.1278 44.8547 39.5715ZM42.8051 39.3137L36.7594 36.7356L33.5367 38.8883C33.2402 39.0844 32.898 39.2004 32.5434 39.2253C32.1889 39.2501 31.8339 39.1829 31.5129 39.0301C29.1113 37.8684 27.1687 35.9349 25.9957 33.5387C25.8411 33.2189 25.7717 32.8645 25.7942 32.5099C25.8168 32.1553 25.9306 31.8126 26.1246 31.5149L28.2773 28.2407L25.6863 22.195C24.4423 22.3549 23.2992 22.9628 22.4711 23.9048C21.643 24.8468 21.1867 26.0583 21.1875 27.3126C21.1909 31.6876 22.9304 35.8824 26.024 38.976C29.1176 42.0697 33.3125 43.8091 37.6875 43.8126C38.9417 43.8134 40.1533 43.357 41.0953 42.5289C42.0373 41.7008 42.6452 40.5577 42.8051 39.3137Z" fill="white"/>
</svg>
