<svg width="64" height="64" viewBox="0 0 64 64" fill="none" xmlns="http://www.w3.org/2000/svg">
<circle cx="32" cy="32" r="32" fill="#2B4448"/>
<path d="M37.825 25.0025C36.8853 23.9293 36.3673 22.5514 36.3675 21.125H32.1187V38.175C32.0866 39.0979 31.6973 39.9722 31.0329 40.6136C30.3685 41.2549 29.4809 41.6131 28.5575 41.6125C26.605 41.6125 24.9825 40.0175 24.9825 38.0375C24.9825 35.6725 27.265 33.8987 29.6162 34.6275V30.2825C24.8725 29.65 20.72 33.335 20.72 38.0375C20.72 42.6163 24.515 45.875 28.5437 45.875C32.8612 45.875 36.3675 42.3688 36.3675 38.0375V29.3888C38.0903 30.626 40.1588 31.2899 42.28 31.2863V27.0375C42.28 27.0375 39.695 27.1613 37.825 25.0025Z" fill="white"/>
</svg>
