<svg width="763" height="427" viewBox="0 0 763 427" fill="none" xmlns="http://www.w3.org/2000/svg">
<line x1="748.438" y1="414.952" x2="292.438" y2="49.9518" stroke="#E51F1F" stroke-width="5"/>
<circle cx="749.5" cy="413.5" r="13.5" fill="#2AABF0"/>
<line x1="-4.018e-09" y1="50.5" x2="294" y2="50.5" stroke="#F61A1A" stroke-width="5"/>
<path d="M71.1136 21.5455H73.6364L79.5682 36.0341H79.7727L85.7045 21.5455H88.2273V39H86.25V25.7386H86.0795L80.625 39H78.7159L73.2614 25.7386H73.0909V39H71.1136V21.5455ZM93.6584 39.1364C93.2379 39.1364 92.8771 38.9858 92.576 38.6847C92.2749 38.3835 92.1243 38.0227 92.1243 37.6023C92.1243 37.1818 92.2749 36.821 92.576 36.5199C92.8771 36.2187 93.2379 36.0682 93.6584 36.0682C94.0788 36.0682 94.4396 36.2187 94.7408 36.5199C95.0419 36.821 95.1925 37.1818 95.1925 37.6023C95.1925 37.8807 95.1214 38.1364 94.9794 38.3693C94.843 38.6023 94.6584 38.7898 94.4254 38.9318C94.1982 39.0682 93.9425 39.1364 93.6584 39.1364ZM104.734 39V35.7614H105.586C106.798 35.7614 107.74 35.3731 108.413 34.5966C109.085 33.8201 109.568 32.5653 109.862 30.8324C110.165 29.0994 110.368 26.803 110.472 23.9432L110.984 9.90909H128.711V39H125.188V13.0341H114.336L113.881 24.625C113.768 27.6742 113.488 30.2689 113.043 32.4091C112.598 34.5492 111.817 36.1828 110.7 37.3097C109.582 38.4366 107.953 39 105.813 39H104.734ZM137.283 39.3977V36.1023H139.102C139.802 36.1023 140.389 35.965 140.863 35.6903C141.346 35.4157 141.744 35.0606 142.056 34.625C142.378 34.1894 142.643 33.7348 142.852 33.2614L143.306 32.1818L133.249 9.90909H137.056L145.067 27.9773L152.397 9.90909H156.147L146.09 34.2841C145.692 35.1932 145.238 36.036 144.727 36.8125C144.225 37.589 143.538 38.214 142.667 38.6875C141.805 39.161 140.636 39.3977 139.158 39.3977H137.283ZM160.71 39V9.90909H178.267V13.0341H164.233V22.125H171.619C173.703 22.125 175.459 22.4659 176.889 23.1477C178.329 23.8295 179.418 24.7907 180.156 26.0312C180.904 27.2718 181.278 28.7348 181.278 30.4205C181.278 32.1061 180.904 33.5928 180.156 34.8807C179.418 36.1686 178.329 37.1771 176.889 37.9062C175.459 38.6354 173.703 39 171.619 39H160.71ZM164.233 35.9318H171.619C172.945 35.9318 174.067 35.6667 174.986 35.1364C175.914 34.5966 176.615 33.9053 177.088 33.0625C177.571 32.2102 177.812 31.3106 177.812 30.3636C177.812 28.9716 177.277 27.7737 176.207 26.7699C175.137 25.7566 173.608 25.25 171.619 25.25H164.233V35.9318ZM187.077 39V9.90909H190.6V22.8636H206.112V9.90909H209.634V39H206.112V25.9886H190.6V39H187.077ZM216.687 9.90909H220.153V32.8068H220.437L236.346 9.90909H239.755V39H236.232V16.1591H235.948L220.096 39H216.687V9.90909Z" fill="#100707"/>
</svg>
